Coordinates
version=1
nRows=20
nColumns=23
inDegrees=yes

Units are S.I. units (second, meters, Newtons, ...)
If the header above contains a line with 'inDegrees', this indicates whether rotational values are in degrees (yes) or radians (no).

endheader
time	pelvis_tilt	pelvis_list	pelvis_rotation	pelvis_tx	pelvis_ty	pelvis_tz	hip_flexion_r	hip_adduction_r	hip_rotation_r	knee_angle_r	knee_angle_r_beta	ankle_angle_r	subtalar_angle_r	mtp_angle_r	hip_flexion_l	hip_adduction_l	hip_rotation_l	knee_angle_l	knee_angle_l_beta	ankle_angle_l	subtalar_angle_l	mtp_angle_l
      7.50000000	     -5.98604200	      5.58818565	      5.77894534	      2.33087143	      0.93358025	      0.97580283	      1.73455605	     -5.62773291	     -4.58302810	     71.13588858	      1.24155547	     -8.05910594	    -15.69366370	      0.00000000	     26.12726211	      9.28331710	     -5.50937280	     36.42749085	      0.63577965	     13.36534079	     -5.55055356	      0.00000000
      7.50666667	     -5.81966753	      5.61097114	      5.64917831	      2.32941910	      0.92932627	      0.97606640	      3.53034882	     -5.86999470	     -4.07234294	     74.24861624	      1.29588282	     -7.17027076	    -16.16041434	      0.00000000	     25.94394237	      9.12482317	     -5.57457858	     38.61552321	      0.67396802	     15.88526435	     -5.03127114	      0.00000000
      7.51333333	     -5.77252679	      5.60040180	      5.49762064	      2.32780518	      0.92543172	      0.97628744	      5.52569090	     -6.06428745	     -3.48229340	     77.16832135	      1.34684129	     -6.22899144	    -16.52890913	      0.00000000	     25.70783983	      9.01077424	     -5.42558129	     40.39094604	      0.70495500	     17.94963457	     -4.99064865	      0.00000000
      7.52000000	     -5.73327870	      5.60666106	      5.28917156	      2.32621751	      0.92199620	      0.97665497	      7.56232463	     -6.27944894	     -2.88247770	     79.84030197	      1.39347615	     -5.35554479	    -16.89377980	      0.00000000	     25.31598882	      8.81474695	     -5.49329413	     41.86787370	      0.73073225	     19.88796813	     -4.80853546	      0.00000000
      7.52666667	     -5.72894309	      5.54721609	      5.02231677	      2.32467013	      0.91907290	      0.97715546	      9.66713280	     -6.35093123	     -2.19828982	     82.22266775	      1.43505627	     -4.49915909	    -17.24580844	      0.00000000	     24.81784014	      8.42330931	     -5.84928711	     43.10055752	      0.75224664	     21.91216779	     -3.87014724	      0.00000000
      7.53333333	     -5.52798250	      5.61362604	      4.74536589	      2.32326420	      0.91701604	      0.97762253	     11.50819808	     -6.52510648	     -1.51727085	     84.26792954	      1.47075282	     -3.71896151	    -17.66650542	      0.00000000	     23.82419250	      8.27081668	     -5.93050737	     43.75676661	      0.76369965	     23.17955406	     -3.96399489	      0.00000000
      7.54000000	     -5.88483672	      5.49424272	      4.56574663	      2.32165838	      0.91468557	      0.97800607	     14.03787774	     -6.53154964	     -0.92540679	     86.14506622	      1.50351504	     -2.91029015	    -17.73173713	      0.00000000	     23.44547406	      7.85107434	     -6.29189420	     44.46765757	      0.77610704	     24.77261054	     -2.81970501	      0.00000000
      7.54666667	     -5.70583134	      5.53346227	      4.35407753	      2.32033617	      0.91372837	      0.97838577	     15.85446326	     -6.63731040	     -0.34420859	     87.56838855	      1.52835670	     -2.28897539	    -18.09729349	      0.00000000	     22.18019212	      7.66716824	     -6.43967165	     44.56784180	      0.77785558	     25.71403000	     -2.69792571	      0.00000000
      7.55333333	     -5.72508860	      5.50851711	      4.23244897	      2.31907559	      0.91304814	      0.97859660	     17.83770141	     -6.67696673	      0.15217080	     88.69225001	      1.54797178	     -1.66988972	    -18.33474773	      0.00000000	     21.02318698	      7.48355935	     -6.50553013	     44.46063050	      0.77598439	     26.47929650	     -2.36396031	      0.00000000
      7.56000000	     -6.07795342	      5.44443820	      4.18332765	      2.31774870	      0.91235565	      0.97872494	     20.18518297	     -6.75204818	      0.51757448	     89.58687087	      1.56358586	     -1.12018381	    -18.24114002	      0.00000000	     20.20214381	      7.15874527	     -6.91704291	     44.32668917	      0.77364667	     27.29039082	     -1.08646835	      0.00000000
      7.56666667	     -6.06912655	      5.39565397	      4.19165974	      2.31663083	      0.91271563	      0.97870748	     21.98857538	     -6.78977232	      0.80891718	     90.06366083	      1.57190742	     -0.64540877	    -18.50750891	      0.00000000	     18.80779536	      7.00973960	     -6.90083402	     43.80797409	      0.76459339	     27.66169497	     -0.73617813	      0.00000000
      7.57333333	     -6.19462916	      5.30721850	      4.28105594	      2.31566618	      0.91349444	      0.97853512	     23.83271007	     -6.79709573	      1.00939273	     90.19956029	      1.57427931	     -0.21924085	    -18.64422884	      0.00000000	     17.46030180	      6.86089460	     -6.82942867	     43.07179525	      0.75174464	     27.87286746	     -0.23961041	      0.00000000
      7.58000000	     -6.34168183	      5.13215281	      4.44447622	      2.31477448	      0.91473828	      0.97831397	     25.58901449	     -6.66205592	      1.13877950	     90.00605624	      1.57090203	      0.17316179	    -18.77558477	      0.00000000	     16.08510297	      6.67130732	     -6.59593061	     42.20307575	      0.73658263	     27.96364709	      0.21540621	      0.00000000
      7.58666667	     -6.47242865	      5.02863669	      4.57509395	      2.31408522	      0.91642712	      0.97796168	     27.23003148	     -6.71099433	      1.18098276	     89.51162572	      1.56227259	      0.51816610	    -18.96661365	      0.00000000	     14.60784919	      6.53471376	     -6.49239614	     41.16635213	      0.71848839	     27.94456491	      0.83285634	      0.00000000
      7.59333333	     -6.78501153	      4.70231632	      4.80292708	      2.31348025	      0.91834105	      0.97756036	     28.93510056	     -6.53995346	      1.02212913	     88.67483996	      1.54766792	      0.86296796	    -18.99440387	      0.00000000	     13.36816506	      6.16484126	     -6.29488292	     40.15433230	      0.70082531	     27.85505564	      1.09849941	      0.00000000
      7.60000000	     -6.70922111	      4.62093368	      4.85609736	      2.31323490	      0.92123241	      0.97726327	     30.08256638	     -6.44517599	      1.15783736	     87.53311536	      1.52774107	      1.09811399	    -19.49274526	      0.00000000	     11.47784800	      6.13304397	     -5.99997725	     38.67967626	      0.67508770	     27.53735889	      1.93299254	      0.00000000
      7.60666667	     -6.78596372	      4.32553020	      4.94695050	      2.31311993	      0.92428731	      0.97698230	     31.25634033	     -6.15993528	      1.09222729	     86.06835154	      1.50217612	      1.29758660	    -19.87028000	      0.00000000	      9.80810326	      5.80471122	     -5.81783482	     37.25827742	      0.65027961	     27.10169584	      2.52583082	      0.00000000
      7.61333333	     -6.93006055	      4.00797048	      4.97108461	      2.31319345	      0.92756926	      0.97678389	     32.38682557	     -5.80755303	      1.04585930	     84.32980949	      1.47183283	      1.46793255	    -20.27981641	      0.00000000	      8.18206938	      5.44710990	     -5.71927260	     35.73448826	      0.62368448	     26.42018235	      3.14460882	      0.00000000
      7.62000000	     -7.08992036	      3.65227560	      4.93222009	      2.31347269	      0.93110976	      0.97668646	     33.39788818	     -5.36292391	      1.01048048	     82.30827024	      1.43655032	      1.57005718	    -20.67545985	      0.00000000	      6.54647590	      5.05878782	     -5.64348081	     34.10331502	      0.59521513	     25.46567809	      3.65352764	      0.00000000
      7.62666667	     -7.24911876	      3.27726523	      4.81346293	      2.31397502	      0.93487608	      0.97673184	     34.27643033	     -4.85034234	      0.98471779	     80.02515065	      1.39670236	      1.61024764	    -21.02639260	      0.00000000	      4.87901872	      4.66574637	     -5.58458436	     32.36060938	      0.56479918	     24.25981218	      3.96630683	      0.00000000
